<svg width="176" height="176" viewBox="0 0 176 176" fill="none" xmlns="http://www.w3.org/2000/svg">
<path d="M88 0C39.4036 0 0 39.4036 0 88C0 136.596 39.4036 176 88 176C136.596 176 176 136.596 176 88C176 39.4036 136.596 0 88 0ZM133.139 58.575L78.4929 128.7C78.0607 129.132 77.3536 130.075 76.4893 130.075C75.5857 130.075 74.9964 129.446 74.4857 128.936C73.975 128.425 43.4893 99.1179 43.4893 99.1179L42.9 98.5286C42.6643 98.175 42.4679 97.7429 42.4679 97.2714C42.4679 96.8 42.6643 96.3679 42.9 96.0143C43.0571 95.8571 43.175 95.7393 43.3321 95.5429C46.3571 92.3607 52.4857 85.9179 52.8786 85.525C53.3893 85.0143 53.8214 84.3464 54.7643 84.3464C55.7464 84.3464 56.375 85.1714 56.8464 85.6429C57.3179 86.1143 74.525 102.654 74.525 102.654L118.25 46.475C118.643 46.1607 119.114 45.925 119.625 45.925C120.136 45.925 120.607 46.1214 121 46.4357L133.021 55.9036C133.336 56.2964 133.532 56.7679 133.532 57.2786C133.571 57.7893 133.375 58.2214 133.139 58.575Z" fill="#FB7448"/>
</svg>
